<svg width="42" height="41" viewBox="0 0 42 41" fill="none" xmlns="http://www.w3.org/2000/svg">
<path fill-rule="evenodd" clip-rule="evenodd" d="M20.9988 0.00709321C9.40343 0.00709321 0 9.41667 0 21.0231C0 30.3094 6.01626 38.1846 14.3602 40.9648C15.4104 41.1595 15.7964 40.5079 15.7964 39.9525C15.7964 39.4513 15.7755 37.7959 15.767 36.0412C9.92435 37.3127 8.69272 33.5604 8.69272 33.5604C7.73776 31.1308 6.36117 30.4847 6.36117 30.4847C4.45599 29.1791 6.50614 29.2078 6.50614 29.2078C8.61437 29.3552 9.72433 31.3721 9.72433 31.3721C11.5985 34.5852 14.6384 33.6551 15.8359 33.119C16.0251 31.7607 16.5676 30.833 17.1691 30.3078C12.5045 29.778 7.60133 27.9752 7.60133 19.9216C7.60133 17.6277 8.42294 15.752 9.76462 14.2812C9.54609 13.7506 8.82679 11.6142 9.96694 8.71996C9.96694 8.71996 11.7302 8.15448 15.7437 10.8742C17.4179 10.4095 19.2138 10.1752 20.9973 10.1675C22.7823 10.1752 24.5813 10.4087 26.2578 10.8742C30.2659 8.15605 32.0276 8.71996 32.0276 8.71996C33.1693 11.615 32.4532 13.7529 32.2346 14.2812C33.5809 15.752 34.3956 17.6277 34.3956 19.9216C34.3956 27.9938 29.4815 29.7686 24.8068 30.2892C25.5603 30.9408 26.233 32.22 26.233 34.1795C26.233 36.9899 26.209 39.255 26.209 39.9462C26.209 40.5055 26.5873 41.1595 27.6522 40.9546C35.9914 38.1729 42 30.2969 42 21.0161C42 9.41115 32.5981 0 21.0004 0L20.9989 0.00702754L20.9988 0.00709321Z" fill="#1966C2"/>
</svg>
