<svg width="42" height="42" viewBox="0 0 42 42" fill="none" xmlns="http://www.w3.org/2000/svg">
<path fill-rule="evenodd" clip-rule="evenodd" d="M42 21C42 32.598 32.598 42 21 42C9.40202 42 0 32.598 0 21C0 9.40202 9.40202 0 21 0C32.598 0 42 9.40202 42 21ZM29.143 33.25H34.4167V22.4163C34.4167 17.8325 31.8182 15.6161 28.1888 15.6161C24.5577 15.6161 23.0296 18.4438 23.0296 18.4438V16.1389H17.9472V33.25H23.0296V24.2677C23.0296 21.861 24.1375 20.4288 26.258 20.4288C28.2072 20.4288 29.143 21.805 29.143 24.2677V33.25ZM8.75 10.7408C8.75 12.4845 10.1528 13.8983 11.884 13.8983C13.6151 13.8983 15.0171 12.4845 15.0171 10.7408C15.0171 8.99716 13.6151 7.58334 11.884 7.58334C10.1528 7.58334 8.75 8.99716 8.75 10.7408ZM14.5593 33.25H9.25966V16.1389H14.5593V33.25Z" fill="#1E293B"/>
</svg>
